<svg width="120" height="23" viewBox="0 0 120 23" fill="none" xmlns="http://www.w3.org/2000/svg">
<path d="M4.16411 0.840464L0.85719 4.08286C0.540866 4.39302 0 4.17335 0 3.73473V0.492333C0 0.220425 0.224812 0 0.50213 0H3.80905C4.2564 0 4.48044 0.530312 4.16411 0.840464Z" fill="#EF101D"/>
<path d="M9.18322 0.853153L0.144872 9.82592C0.0520503 9.91807 0 10.0424 0 10.1719V18.6278C0 19.0664 0.540864 19.2861 0.857189 18.9759L9.89554 10.1139C9.9897 10.0216 10.0426 9.89638 10.0426 9.76581V1.19912C10.0426 0.759018 9.49863 0.54003 9.18322 0.853153Z" fill="#EF101D"/>
<path d="M18.9748 0.853153L9.93641 9.82592C9.84359 9.91807 9.79154 10.0424 9.79154 10.1719V18.6278C9.79154 19.0664 10.3324 19.2861 10.6487 18.9759L19.6871 10.1139C19.7812 10.0216 19.8341 9.89638 19.8341 9.76581V1.19912C19.8341 0.759018 19.2902 0.54003 18.9748 0.853153Z" fill="#EF101D"/>
<path d="M29.0174 0.853153L19.979 9.82592C19.8862 9.91807 19.8341 10.0424 19.8341 10.1719V18.6278C19.8341 19.0664 20.375 19.2861 20.6913 18.9759L29.7297 10.1139C29.8238 10.0216 29.8768 9.89638 29.8768 9.76581V1.19912C29.8768 0.759018 29.3328 0.54003 29.0174 0.853153Z" fill="#EF101D"/>
<path d="M58.5823 2.80363C58.8118 2.80363 59.0197 2.88251 59.2062 3.04026C59.4069 3.19801 59.5073 3.42029 59.5073 3.70711C59.5073 3.80749 59.493 3.91505 59.4643 4.02978L54.8824 17.3668C54.825 17.5388 54.7175 17.6751 54.5597 17.7755C54.4163 17.8615 54.2657 17.9117 54.108 17.9261C53.9359 17.9261 53.771 17.883 53.6132 17.797C53.4555 17.6966 53.3336 17.5532 53.2475 17.3668L49.6552 8.67621L49.8273 8.74074L46.2564 17.3668C46.1703 17.5532 46.0484 17.6966 45.8907 17.797C45.7329 17.883 45.568 17.9261 45.3959 17.9261C45.2382 17.9117 45.0804 17.8615 44.9227 17.7755C44.7793 17.6751 44.6789 17.5388 44.6215 17.3668L40.0396 4.02978C40.0109 3.91505 39.9966 3.81466 39.9966 3.72862C39.9966 3.4418 40.097 3.21952 40.2978 3.06177C40.5129 2.88968 40.728 2.80363 40.9431 2.80363C41.1152 2.80363 41.2801 2.85383 41.4379 2.95421C41.5956 3.0546 41.7032 3.19084 41.7605 3.36293L45.7831 15.2371H45.482L48.9883 6.56811C49.06 6.39601 49.1676 6.25978 49.311 6.15939C49.4544 6.059 49.6193 6.00881 49.8057 6.00881C49.9778 6.00881 50.1356 6.059 50.279 6.15939C50.4367 6.25978 50.5443 6.39601 50.6017 6.56811L54.0004 15.1081L53.7423 15.2156L57.7434 3.36293C57.8008 3.19084 57.9083 3.0546 58.0661 2.95421C58.2238 2.85383 58.3959 2.80363 58.5823 2.80363Z" fill="url(#paint0_linear_5410_8089)"/>
<path d="M70.6328 6.69717C70.8766 6.69717 71.0774 6.78322 71.2352 6.95531C71.4072 7.11306 71.4933 7.31383 71.4933 7.55762V17.0441C71.4933 17.2879 71.4072 17.4958 71.2352 17.6679C71.0774 17.84 70.8766 17.9261 70.6328 17.9261C70.3747 17.9261 70.1668 17.84 70.009 17.6679C69.8513 17.4958 69.7724 17.2879 69.7724 17.0441V15.0005L70.1811 14.9575C70.1811 15.273 70.0735 15.6172 69.8584 15.99C69.6433 16.3629 69.3493 16.7142 68.9765 17.0441C68.6036 17.3596 68.159 17.6249 67.6428 17.84C67.1408 18.0408 66.5959 18.1412 66.0079 18.1412C65.0327 18.1412 64.158 17.8902 63.3835 17.3883C62.6091 16.872 61.9925 16.1765 61.5336 15.3017C61.089 14.4269 60.8667 13.4302 60.8667 12.3116C60.8667 11.1787 61.089 10.182 61.5336 9.32155C61.9925 8.44675 62.6091 7.76556 63.3835 7.27798C64.158 6.77605 65.0184 6.52508 65.9649 6.52508C66.5816 6.52508 67.1552 6.62547 67.6858 6.82624C68.2164 7.02701 68.6753 7.29949 69.0625 7.64367C69.4641 7.98785 69.7724 8.36788 69.9875 8.78376C70.217 9.19965 70.3317 9.61553 70.3317 10.0314L69.7724 9.90235V7.55762C69.7724 7.31383 69.8513 7.11306 70.009 6.95531C70.1668 6.78322 70.3747 6.69717 70.6328 6.69717ZM66.2015 16.5493C66.9186 16.5493 67.5496 16.3629 68.0945 15.99C68.6538 15.6172 69.084 15.1152 69.3852 14.4842C69.7007 13.8389 69.8584 13.1147 69.8584 12.3116C69.8584 11.5229 69.7007 10.813 69.3852 10.182C69.084 9.53666 68.6538 9.03473 68.0945 8.67621C67.5496 8.30335 66.9186 8.11691 66.2015 8.11691C65.4988 8.11691 64.8678 8.29618 64.3085 8.6547C63.7636 9.01322 63.3334 9.50798 63.0179 10.139C62.7024 10.77 62.5446 11.4942 62.5446 12.3116C62.5446 13.1147 62.6952 13.8389 62.9963 14.4842C63.3118 15.1152 63.7421 15.6172 64.287 15.99C64.8463 16.3629 65.4845 16.5493 66.2015 16.5493Z" fill="url(#paint1_linear_5410_8089)"/>
<path d="M74.2523 6.86926H79.3074C79.5369 6.86926 79.7233 6.94814 79.8667 7.10589C80.0245 7.26364 80.1033 7.45007 80.1033 7.66518C80.1033 7.89463 80.0245 8.08823 79.8667 8.24598C79.7233 8.38939 79.5369 8.4611 79.3074 8.4611H74.2523C74.0372 8.4611 73.8507 8.38222 73.693 8.22447C73.5352 8.06672 73.4564 7.87312 73.4564 7.64367C73.4564 7.42855 73.5352 7.24929 73.693 7.10589C73.8507 6.94814 74.0372 6.86926 74.2523 6.86926ZM76.511 3.94373C76.7548 3.94373 76.9555 4.02978 77.1133 4.20187C77.271 4.35961 77.3499 4.56039 77.3499 4.80418V15.1941C77.3499 15.5383 77.4001 15.7964 77.5005 15.9685C77.6009 16.1406 77.7299 16.2625 77.8877 16.3342C78.0598 16.3916 78.2247 16.4203 78.3824 16.4203C78.5258 16.4203 78.6477 16.3988 78.7481 16.3557C78.8629 16.2984 78.9919 16.2697 79.1353 16.2697C79.2787 16.2697 79.4078 16.3414 79.5225 16.4848C79.6516 16.6139 79.7161 16.786 79.7161 17.0011C79.7161 17.2592 79.5656 17.4815 79.2644 17.6679C78.9632 17.84 78.6262 17.9261 78.2534 17.9261C78.0526 17.9261 77.8016 17.9117 77.5005 17.883C77.2137 17.8543 76.9268 17.7611 76.64 17.6034C76.3532 17.4456 76.1094 17.1875 75.9086 16.829C75.7222 16.4561 75.629 15.9398 75.629 15.2802V4.80418C75.629 4.56039 75.715 4.35961 75.8871 4.20187C76.0592 4.02978 76.2672 3.94373 76.511 3.94373Z" fill="url(#paint2_linear_5410_8089)"/>
<path d="M87.3397 6.52508C88.0711 6.52508 88.7308 6.60396 89.3187 6.76171C89.9067 6.91945 90.3728 7.13457 90.717 7.40704C91.0611 7.67952 91.2332 7.98785 91.2332 8.33203C91.2332 8.51846 91.1687 8.69772 91.0396 8.86981C90.9106 9.0419 90.7385 9.12794 90.5234 9.12794C90.3226 9.12794 90.1577 9.09209 90.0286 9.02039C89.9139 8.94868 89.7991 8.85547 89.6844 8.74074C89.584 8.62601 89.4406 8.52563 89.2542 8.43958C89.0821 8.3392 88.8311 8.26032 88.5013 8.20296C88.1715 8.1456 87.8416 8.11691 87.5118 8.11691C86.723 8.11691 86.0275 8.30335 85.4252 8.67621C84.8372 9.04907 84.3711 9.551 84.027 10.182C83.6828 10.813 83.5107 11.53 83.5107 12.3331C83.5107 13.1362 83.6756 13.8533 84.0054 14.4842C84.3353 15.1152 84.7942 15.6172 85.3822 15.99C85.9701 16.3629 86.6513 16.5493 87.4257 16.5493C87.9277 16.5493 88.3292 16.5063 88.6304 16.4203C88.9315 16.3342 89.1825 16.2338 89.3833 16.1191C89.6414 15.9757 89.835 15.8323 89.9641 15.6889C90.1075 15.5455 90.2939 15.4738 90.5234 15.4738C90.7672 15.4738 90.9536 15.5526 91.0827 15.7104C91.2261 15.8681 91.2978 16.0617 91.2978 16.2912C91.2978 16.5493 91.1185 16.8218 90.76 17.1086C90.4015 17.3954 89.9139 17.6392 89.2972 17.84C88.6949 18.0408 88.0065 18.1412 87.2321 18.1412C86.1422 18.1412 85.1886 17.8902 84.3711 17.3883C83.5537 16.872 82.9155 16.1765 82.4566 15.3017C82.0121 14.4125 81.7898 13.423 81.7898 12.3331C81.7898 11.2432 82.0192 10.2609 82.4781 9.38608C82.9514 8.51129 83.6039 7.81576 84.4357 7.29949C85.2674 6.78322 86.2355 6.52508 87.3397 6.52508Z" fill="url(#paint3_linear_5410_8089)"/>
<path d="M98.9247 6.63264C99.8712 6.63264 100.617 6.84058 101.162 7.25646C101.721 7.65801 102.116 8.20296 102.345 8.89132C102.589 9.56534 102.711 10.3182 102.711 11.15V17.0441C102.711 17.2879 102.625 17.4958 102.453 17.6679C102.295 17.84 102.094 17.9261 101.85 17.9261C101.606 17.9261 101.398 17.84 101.226 17.6679C101.069 17.4958 100.99 17.2879 100.99 17.0441V11.15C100.99 10.6051 100.911 10.1175 100.753 9.68724C100.595 9.24267 100.33 8.89132 99.9572 8.63319C99.5987 8.36071 99.1039 8.22447 98.473 8.22447C97.885 8.22447 97.3472 8.36071 96.8596 8.63319C96.372 8.89132 95.9848 9.24267 95.698 9.68724C95.4112 10.1175 95.2678 10.6051 95.2678 11.15V17.0441C95.2678 17.2879 95.1817 17.4958 95.0096 17.6679C94.8519 17.84 94.6511 17.9261 94.4073 17.9261C94.1635 17.9261 93.9556 17.84 93.7835 17.6679C93.6257 17.4958 93.5469 17.2879 93.5469 17.0441V2.86817C93.5469 2.62437 93.6257 2.4236 93.7835 2.26585C93.9556 2.09376 94.1635 2.00772 94.4073 2.00772C94.6655 2.00772 94.8734 2.09376 95.0311 2.26585C95.1889 2.4236 95.2678 2.62437 95.2678 2.86817V9.30003L94.8375 9.77328C94.9093 9.40042 95.067 9.02756 95.3108 8.6547C95.5546 8.26749 95.8629 7.92331 96.2358 7.62216C96.6086 7.321 97.0245 7.08437 97.4834 6.91228C97.9423 6.72585 98.4228 6.63264 98.9247 6.63264Z" fill="url(#paint4_linear_5410_8089)"/>
<path d="M107.792 17.0441C107.792 17.2879 107.706 17.4958 107.534 17.6679C107.362 17.84 107.154 17.9261 106.91 17.9261C106.666 17.9261 106.466 17.84 106.308 17.6679C106.15 17.4958 106.071 17.2879 106.071 17.0441V2.86817C106.071 2.62437 106.15 2.4236 106.308 2.26585C106.48 2.09376 106.688 2.00772 106.932 2.00772C107.19 2.00772 107.398 2.09376 107.555 2.26585C107.713 2.4236 107.792 2.62437 107.792 2.86817V17.0441Z" fill="url(#paint5_linear_5410_8089)"/>
<path d="M119.14 6.63264C119.383 6.63264 119.584 6.71868 119.742 6.89077C119.914 7.04852 120 7.24929 120 7.49309V16.872C120 18.0766 119.763 19.0733 119.29 19.8621C118.817 20.6652 118.179 21.2603 117.376 21.6475C116.587 22.0347 115.691 22.2283 114.687 22.2283C114.127 22.2283 113.59 22.1709 113.073 22.0562C112.557 21.9415 112.134 21.7909 111.804 21.6045C111.532 21.4754 111.338 21.3105 111.223 21.1097C111.123 20.9233 111.109 20.7225 111.18 20.5074C111.281 20.2493 111.424 20.07 111.611 19.9696C111.811 19.8692 112.019 19.8692 112.234 19.9696C112.464 20.07 112.794 20.2062 113.224 20.3783C113.669 20.5648 114.163 20.658 114.708 20.658C115.454 20.658 116.092 20.5146 116.623 20.2278C117.153 19.9409 117.562 19.5179 117.849 18.9586C118.136 18.4136 118.279 17.7324 118.279 16.915V15.3877L118.537 15.9255C118.308 16.3701 117.999 16.7573 117.612 17.0871C117.225 17.417 116.78 17.6751 116.279 17.8615C115.777 18.0479 115.225 18.1412 114.622 18.1412C113.805 18.1412 113.109 17.9691 112.536 17.6249C111.976 17.2664 111.546 16.7788 111.245 16.1621C110.958 15.5311 110.815 14.8069 110.815 13.9895V7.49309C110.815 7.24929 110.894 7.04852 111.051 6.89077C111.223 6.71868 111.431 6.63264 111.675 6.63264C111.933 6.63264 112.141 6.71868 112.299 6.89077C112.457 7.04852 112.536 7.24929 112.536 7.49309V13.6023C112.536 14.5775 112.751 15.316 113.181 15.8179C113.611 16.3055 114.278 16.5493 115.181 16.5493C115.755 16.5493 116.271 16.4203 116.73 16.1621C117.204 15.904 117.576 15.5526 117.849 15.1081C118.136 14.6492 118.279 14.1472 118.279 13.6023V7.49309C118.279 7.24929 118.358 7.04852 118.516 6.89077C118.673 6.71868 118.881 6.63264 119.14 6.63264Z" fill="url(#paint6_linear_5410_8089)"/>
<defs>
<linearGradient id="paint0_linear_5410_8089" x1="120" y1="11.1142" x2="0" y2="11.1142" gradientUnits="userSpaceOnUse">
<stop offset="0.1" stop-color="#EF7210"/>
<stop offset="1" stop-color="#EF101D"/>
</linearGradient>
<linearGradient id="paint1_linear_5410_8089" x1="120" y1="11.1142" x2="0" y2="11.1142" gradientUnits="userSpaceOnUse">
<stop offset="0.1" stop-color="#EF7210"/>
<stop offset="1" stop-color="#EF101D"/>
</linearGradient>
<linearGradient id="paint2_linear_5410_8089" x1="120" y1="11.1142" x2="0" y2="11.1142" gradientUnits="userSpaceOnUse">
<stop offset="0.1" stop-color="#EF7210"/>
<stop offset="1" stop-color="#EF101D"/>
</linearGradient>
<linearGradient id="paint3_linear_5410_8089" x1="120" y1="11.1142" x2="0" y2="11.1142" gradientUnits="userSpaceOnUse">
<stop offset="0.1" stop-color="#EF7210"/>
<stop offset="1" stop-color="#EF101D"/>
</linearGradient>
<linearGradient id="paint4_linear_5410_8089" x1="120" y1="11.1142" x2="0" y2="11.1142" gradientUnits="userSpaceOnUse">
<stop offset="0.1" stop-color="#EF7210"/>
<stop offset="1" stop-color="#EF101D"/>
</linearGradient>
<linearGradient id="paint5_linear_5410_8089" x1="120" y1="11.1142" x2="0" y2="11.1142" gradientUnits="userSpaceOnUse">
<stop offset="0.1" stop-color="#EF7210"/>
<stop offset="1" stop-color="#EF101D"/>
</linearGradient>
<linearGradient id="paint6_linear_5410_8089" x1="120" y1="11.1142" x2="0" y2="11.1142" gradientUnits="userSpaceOnUse">
<stop offset="0.1" stop-color="#EF7210"/>
<stop offset="1" stop-color="#EF101D"/>
</linearGradient>
</defs>
</svg>
